<?xml version="1.0" encoding="iso-8859-1"?>
<!-- Generator: Adobe Illustrator 19.0.0, SVG Export Plug-In . SVG Version: 6.00 Build 0)  -->
<svg version="1.1" id="Capa_1" xmlns="http://www.w3.org/2000/svg" xmlns:xlink="http://www.w3.org/1999/xlink" x="0px" y="0px"
	 viewBox="0 0 511.895 511.895" style="enable-background:new 0 0 511.895 511.895;" xml:space="preserve">
<g>
	<path style="fill:#DADCDA;" d="M484.972,398.01l-26.707,15.429h-0.277l-169.652,97.557l-1.522,0.899
		c-0.316-0.028-0.622-0.122-0.899-0.277L29.568,363.623c-1.548-0.99-2.526-2.663-2.629-4.497v-24.977
		c-0.096-0.709,0.264-1.401,0.899-1.73v-0.069l170.205-98.179V26.257c-0.269-3.374,0.973-6.694,3.39-9.064l2.076-1.245
		l24.631-14.184l1.799-1.107l0.208-0.138h0.069c3.356-1.049,7.009-0.487,9.894,1.522l229.501,132.497
		c9.018,5.902,14.694,15.738,15.291,26.499v208.259L484.972,398.01z"/>
	<path style="fill:#A5B4B4;" d="M288.544,485.119v24.977c0.005,0.312-0.066,0.621-0.208,0.899l-1.522,0.899
		c-0.316-0.028-0.622-0.122-0.899-0.277L29.568,363.623c-1.548-0.99-2.526-2.663-2.629-4.497v-24.977
		c-0.096-0.709,0.264-1.401,0.899-1.73c0.574-0.232,1.227-0.154,1.73,0.208l106.067,61.232c0.935,3.627,3.177,6.781,6.296,8.856
		l36.117,20.826c2.906,1.661,5.397,0.899,6.365-1.522l101.501,58.603c0.828,0.496,1.499,1.216,1.937,2.076
		C288.271,483.439,288.508,484.269,288.544,485.119z"/>
	<path style="fill:#919D9E;" d="M484.972,398.01l-26.707,15.429h-0.277l-169.652,97.557c0.142-0.278,0.213-0.587,0.208-0.899
		v-24.977c-0.035-0.851-0.272-1.681-0.692-2.422l170.413-97.972V176.466c-0.621-10.753-6.325-20.567-15.36-26.43L213.404,17.469
		c-2.9-1.973-6.535-2.532-9.894-1.522l24.631-14.184l1.799-1.107l0.208-0.138h0.069c3.356-1.049,7.009-0.487,9.894,1.522
		l229.501,132.497c9.018,5.902,14.694,15.738,15.291,26.499v208.259L484.972,398.01z"/>
	<polygon style="fill:#4F6F7F;" points="440.638,355.376 215.634,225.473 215.634,37.963 440.638,167.866 	"/>
	<path style="fill:#B4B4B3;" d="M458.264,384.726l-170.413,97.972c-0.438-0.86-1.109-1.579-1.937-2.076l-101.501-58.603
		c-0.969,2.422-3.459,3.183-6.365,1.522l-36.117-20.826c-3.119-2.075-5.361-5.229-6.296-8.856L29.569,332.626
		c-0.503-0.362-1.156-0.44-1.73-0.208v-0.069l170.205-98.179v0.277L458.264,384.726z"/>
	<g>
		<polygon style="fill:#DADCDA;" points="133.029,307.926 337.207,426.44 407.129,384.484 202.952,265.969 		"/>
		<polygon style="fill:#DADCDA;" points="140.592,368.445 227.265,418.753 256.947,400.944 170.274,350.629 		"/>
	</g>
	<g>
		<path style="fill:#95C2D5;" d="M240.091,112.434c-1.57,0.001-2.944-1.056-3.345-2.575c-0.401-1.518,0.27-3.116,1.636-3.892
			l19.568-11.145c1.074-0.611,2.393-0.602,3.459,0.023c1.066,0.625,1.718,1.771,1.709,3.007c-0.008,1.236-0.675,2.373-1.749,2.984
			l-19.568,11.145C241.28,112.279,240.691,112.435,240.091,112.434z"/>
		<path style="fill:#95C2D5;" d="M240.091,140.488c-1.57,0.001-2.944-1.057-3.345-2.575s0.27-3.116,1.636-3.892l9.784-5.574
			c1.074-0.611,2.393-0.602,3.459,0.023c1.066,0.625,1.718,1.771,1.709,3.007c-0.008,1.236-0.675,2.373-1.749,2.984l-9.784,5.574
			C241.28,140.333,240.691,140.489,240.091,140.488z"/>
		<path style="fill:#95C2D5;" d="M269.443,123.769c-1.57,0.001-2.944-1.056-3.345-2.575c-0.401-1.518,0.27-3.116,1.636-3.892
			l14.676-8.358c1.074-0.611,2.393-0.602,3.459,0.023c1.066,0.625,1.718,1.771,1.709,3.007c-0.008,1.236-0.675,2.373-1.749,2.984
			l-14.676,8.358C270.631,123.613,270.042,123.769,269.443,123.769z"/>
		<path style="fill:#95C2D5;" d="M240.091,168.539c-1.57,0.001-2.944-1.056-3.345-2.575c-0.401-1.518,0.27-3.116,1.636-3.892
			l44.027-25.078c1.074-0.611,2.393-0.602,3.459,0.023c1.066,0.625,1.718,1.771,1.709,3.007c-0.008,1.236-0.675,2.373-1.749,2.984
			l-44.027,25.078C241.28,168.383,240.691,168.539,240.091,168.539z"/>
		<path style="fill:#95C2D5;" d="M303.679,132.316c-1.57,0.001-2.944-1.057-3.345-2.575c-0.401-1.518,0.27-3.116,1.636-3.892
			l4.892-2.787c1.661-0.944,3.772-0.363,4.716,1.297c0.944,1.661,0.363,3.772-1.297,4.716l-4.892,2.787
			C304.868,132.16,304.278,132.316,303.679,132.316z"/>
	</g>
</g>
<g>
</g>
<g>
</g>
<g>
</g>
<g>
</g>
<g>
</g>
<g>
</g>
<g>
</g>
<g>
</g>
<g>
</g>
<g>
</g>
<g>
</g>
<g>
</g>
<g>
</g>
<g>
</g>
<g>
</g>
</svg>
